<?xml version="1.0" encoding="utf-8"?>
<!DOCTYPE svg PUBLIC "-//W3C//DTD SVG 1.1//EN" "http://www.w3.org/Graphics/SVG/1.1/DTD/svg11.dtd">
<svg version="1.1" id="Layer_1" xmlns="http://www.w3.org/2000/svg" xmlns:xlink="http://www.w3.org/1999/xlink" x="0px" y="0px"
	 width="802.441px" height="320.894px" viewBox="0 0 802.441 320.894" enable-background="new 0 0 802.441 320.894"
	 xml:space="preserve">
<g>
	<g>
		<svg y="-20">
		<path fill="#5A2249" d="M188.66,209.018c0,1.396-0.061,2.586-0.18,3.569c-0.121,0.986-0.301,1.78-0.541,2.381
			c-0.241,0.603-0.541,1.046-0.902,1.334c-0.36,0.289-0.757,0.433-1.19,0.433h-23.371v75.236c0,0.48-0.157,0.913-0.469,1.297
			c-0.313,0.387-0.83,0.698-1.551,0.938c-0.721,0.241-1.695,0.433-2.921,0.577c-1.226,0.144-2.753,0.216-4.581,0.216
			s-3.354-0.072-4.58-0.216c-1.227-0.145-2.2-0.336-2.921-0.577c-0.722-0.24-1.239-0.554-1.551-0.938
			c-0.313-0.384-0.469-0.815-0.469-1.297v-75.236h-23.371c-0.481,0-0.89-0.144-1.226-0.433c-0.337-0.288-0.625-0.731-0.866-1.334
			c-0.241-0.601-0.421-1.395-0.541-2.381c-0.121-0.983-0.18-2.175-0.18-3.569c0-1.442,0.06-2.67,0.18-3.68
			c0.12-1.01,0.3-1.814,0.541-2.416c0.24-0.602,0.529-1.033,0.866-1.299c0.336-0.264,0.745-0.396,1.226-0.396h65.786
			c0.433,0,0.83,0.133,1.19,0.396c0.361,0.266,0.661,0.697,0.902,1.299c0.24,0.602,0.42,1.406,0.541,2.416
			C188.599,206.348,188.66,207.574,188.66,209.018z"/>
		<path fill="#5A2249" d="M252.065,292.114c0,0.479-0.121,0.901-0.36,1.262c-0.241,0.36-0.662,0.662-1.263,0.901
			c-0.602,0.242-1.395,0.421-2.38,0.541c-0.986,0.119-2.225,0.181-3.715,0.181c-1.587,0-2.874-0.062-3.859-0.181
			c-0.986-0.12-1.768-0.299-2.344-0.541c-0.577-0.239-0.986-0.541-1.227-0.901s-0.36-0.78-0.36-1.262v-7.431
			c-3.56,3.849-7.177,6.732-10.856,8.655c-3.679,1.923-7.49,2.886-11.433,2.886c-4.425,0-8.14-0.722-11.145-2.164
			c-3.006-1.441-5.435-3.414-7.285-5.914c-1.852-2.5-3.174-5.397-3.967-8.692c-0.793-3.293-1.19-7.394-1.19-12.298v-39.385
			c0-0.48,0.132-0.902,0.397-1.264c0.264-0.359,0.745-0.66,1.442-0.9s1.634-0.422,2.813-0.541c1.178-0.121,2.633-0.182,4.364-0.182
			c1.779,0,3.246,0.061,4.4,0.182c1.154,0.119,2.079,0.301,2.777,0.541c0.697,0.24,1.19,0.541,1.479,0.9
			c0.289,0.36,0.433,0.782,0.433,1.264v36.354c0,3.367,0.216,5.939,0.649,7.719s1.093,3.307,1.983,4.58
			c0.889,1.273,2.02,2.262,3.39,2.958c1.371,0.697,2.969,1.046,4.797,1.046c2.309,0,4.628-0.841,6.961-2.525
			c2.332-1.683,4.821-4.135,7.466-7.356v-42.774c0-0.479,0.132-0.901,0.397-1.263c0.264-0.36,0.745-0.659,1.442-0.901
			c0.697-0.239,1.623-0.42,2.777-0.541c1.154-0.119,2.62-0.181,4.4-0.181c1.779,0,3.246,0.062,4.4,0.181
			c1.154,0.121,2.067,0.302,2.741,0.541c0.673,0.242,1.154,0.541,1.443,0.901s0.433,0.782,0.433,1.263V292.114L252.065,292.114z"/>
		<path fill="#5A2249" d="M331.772,292.114c0,0.479-0.145,0.901-0.433,1.262c-0.289,0.36-0.77,0.662-1.442,0.901
			c-0.674,0.242-1.6,0.421-2.777,0.541c-1.179,0.119-2.633,0.181-4.364,0.181c-1.779,0-3.258-0.062-4.436-0.181
			c-1.179-0.12-2.104-0.299-2.777-0.541c-0.674-0.239-1.154-0.541-1.443-0.901s-0.433-0.78-0.433-1.262v-36.716
			c0-3.127-0.229-5.578-0.686-7.357c-0.458-1.779-1.118-3.307-1.983-4.581c-0.866-1.272-1.984-2.26-3.354-2.957
			c-1.37-0.696-2.97-1.046-4.797-1.046c-2.308,0-4.641,0.842-6.997,2.523c-2.357,1.685-4.81,4.138-7.358,7.357v42.775
			c0,0.479-0.144,0.9-0.433,1.262s-0.782,0.662-1.479,0.902c-0.698,0.24-1.623,0.42-2.777,0.541c-1.154,0.119-2.622,0.18-4.4,0.18
			c-1.78,0-3.246-0.061-4.4-0.18c-1.154-0.121-2.081-0.301-2.777-0.541c-0.698-0.24-1.19-0.541-1.479-0.902
			c-0.289-0.359-0.433-0.781-0.433-1.262V227.77c0-0.479,0.119-0.901,0.36-1.263c0.24-0.36,0.673-0.659,1.299-0.901
			c0.624-0.239,1.43-0.42,2.416-0.541c0.985-0.119,2.224-0.181,3.715-0.181c1.539,0,2.813,0.062,3.823,0.181
			c1.01,0.121,1.791,0.302,2.344,0.541c0.552,0.242,0.949,0.541,1.19,0.901c0.24,0.36,0.36,0.782,0.36,1.263v7.431
			c3.559-3.847,7.177-6.732,10.856-8.656c3.679-1.923,7.513-2.886,11.505-2.886c4.375,0,8.067,0.722,11.073,2.164
			c3.004,1.443,5.434,3.402,7.285,5.879c1.851,2.479,3.185,5.374,4.003,8.691c0.817,3.318,1.227,7.312,1.227,11.975v39.747H331.772z
			"/>
		<path fill="#5A2249" d="M407.584,232.243c0,2.309-0.264,4.016-0.793,5.122c-0.529,1.105-1.18,1.658-1.947,1.658h-7.574
			c1.058,1.153,1.814,2.466,2.271,3.932c0.457,1.468,0.686,2.993,0.686,4.58c0,3.751-0.625,7.082-1.875,9.99
			c-1.252,2.91-3.042,5.363-5.375,7.357c-2.332,1.996-5.145,3.512-8.439,4.544c-3.294,1.035-6.96,1.552-11,1.552
			c-2.068,0-4.04-0.252-5.915-0.758c-1.875-0.505-3.318-1.094-4.328-1.768c-0.577,0.626-1.094,1.371-1.551,2.236
			c-0.458,0.865-0.685,1.828-0.685,2.885c0,1.396,0.613,2.537,1.839,3.427c1.226,0.892,2.945,1.383,5.157,1.479l15.653,0.576
			c3.653,0.146,6.913,0.662,9.774,1.551c2.861,0.892,5.266,2.142,7.213,3.752c1.946,1.611,3.438,3.547,4.473,5.807
			c1.033,2.261,1.551,4.833,1.551,7.719c0,3.174-0.696,6.167-2.092,8.98c-1.395,2.812-3.488,5.253-6.275,7.32
			c-2.789,2.067-6.289,3.702-10.496,4.905c-4.208,1.201-9.125,1.804-14.751,1.804c-5.482,0-10.159-0.434-14.03-1.299
			c-3.872-0.864-7.045-2.067-9.521-3.605c-2.478-1.54-4.281-3.379-5.41-5.52c-1.13-2.141-1.695-4.484-1.695-7.033
			c0-1.586,0.204-3.102,0.613-4.543c0.408-1.442,1.01-2.826,1.804-4.147c0.793-1.322,1.767-2.585,2.921-3.787
			c1.154-1.202,2.476-2.354,3.967-3.463c-2.068-1.104-3.667-2.606-4.797-4.508c-1.13-1.899-1.695-3.979-1.695-6.239
			c0-2.837,0.649-5.422,1.948-7.755c1.298-2.332,2.981-4.437,5.049-6.312c-1.684-1.684-3.03-3.703-4.04-6.061
			c-1.01-2.355-1.515-5.289-1.515-8.8c0-3.751,0.66-7.105,1.983-10.062c1.322-2.959,3.162-5.457,5.518-7.503
			c2.356-2.043,5.169-3.606,8.44-4.688c3.27-1.081,6.876-1.622,10.82-1.622c2.02,0,3.955,0.12,5.807,0.36
			c1.851,0.24,3.571,0.576,5.158,1.01h20.414c0.816,0,1.479,0.529,1.982,1.587C407.332,227.964,407.584,229.743,407.584,232.243z
			 M388.541,298.822c0-2.164-0.865-3.823-2.596-4.979c-1.732-1.152-4.113-1.777-7.142-1.875l-12.912-0.359
			c-1.251,0.914-2.249,1.791-2.993,2.633c-0.746,0.841-1.347,1.646-1.803,2.416c-0.458,0.769-0.758,1.515-0.902,2.236
			c-0.145,0.722-0.216,1.465-0.216,2.235c0,2.403,1.214,4.229,3.643,5.481c2.428,1.25,5.854,1.876,10.279,1.876
			c2.741,0,5.049-0.277,6.925-0.83c1.876-0.554,3.39-1.287,4.544-2.199c1.154-0.914,1.971-1.937,2.453-3.065
			C388.301,301.264,388.541,300.072,388.541,298.822z M384.285,247.464c0-3.463-0.962-6.155-2.885-8.079
			c-1.924-1.923-4.641-2.886-8.151-2.886c-1.78,0-3.343,0.301-4.689,0.901c-1.347,0.603-2.465,1.42-3.354,2.453
			c-0.89,1.033-1.551,2.235-1.983,3.605c-0.433,1.371-0.649,2.802-0.649,4.292c0,3.271,0.961,5.854,2.885,7.754
			c1.923,1.899,4.592,2.851,8.007,2.851c1.827,0,3.414-0.289,4.761-0.865c1.346-0.577,2.464-1.371,3.354-2.381
			s1.562-2.176,2.02-3.498C384.057,250.289,384.285,248.906,384.285,247.464z"/>
		<path fill="#5A2249" d="M464.931,273.938c0,3.654-0.686,6.877-2.056,9.666c-1.371,2.789-3.308,5.121-5.808,6.996
			c-2.501,1.875-5.458,3.281-8.872,4.221c-3.415,0.938-7.117,1.406-11.108,1.406c-2.405,0-4.701-0.182-6.889-0.541
			c-2.188-0.36-4.147-0.818-5.879-1.371s-3.175-1.117-4.328-1.694c-1.154-0.577-1.996-1.118-2.524-1.623
			c-0.529-0.505-0.938-1.299-1.227-2.381c-0.288-1.082-0.434-2.681-0.434-4.798c0-1.394,0.049-2.512,0.146-3.354
			c0.096-0.841,0.24-1.516,0.433-2.021c0.191-0.504,0.434-0.84,0.723-1.01c0.287-0.168,0.647-0.252,1.082-0.252
			c0.527,0,1.31,0.301,2.344,0.901c1.034,0.603,2.318,1.263,3.858,1.983c1.538,0.722,3.329,1.396,5.374,2.02
			c2.043,0.626,4.364,0.938,6.961,0.938c1.635,0,3.09-0.168,4.364-0.504c1.273-0.336,2.38-0.817,3.317-1.443
			c0.938-0.624,1.646-1.418,2.128-2.381c0.479-0.961,0.722-2.066,0.722-3.317c0-1.442-0.445-2.68-1.335-3.715
			c-0.89-1.033-2.067-1.937-3.534-2.705c-1.468-0.769-3.126-1.489-4.978-2.164c-1.853-0.673-3.75-1.418-5.698-2.235
			c-1.947-0.816-3.848-1.756-5.698-2.812c-1.852-1.059-3.511-2.355-4.978-3.896c-1.467-1.537-2.646-3.391-3.534-5.554
			c-0.891-2.164-1.335-4.762-1.335-7.791c0-3.077,0.602-5.901,1.804-8.476c1.201-2.572,2.934-4.771,5.193-6.6
			s5.014-3.246,8.26-4.257s6.89-1.516,10.928-1.516c2.021,0,3.979,0.146,5.88,0.434c1.898,0.288,3.617,0.648,5.156,1.082
			c1.539,0.433,2.837,0.901,3.896,1.406c1.058,0.505,1.813,0.938,2.271,1.298c0.456,0.361,0.781,0.723,0.975,1.082
			c0.19,0.361,0.336,0.794,0.433,1.299c0.096,0.506,0.181,1.131,0.253,1.875c0.072,0.746,0.107,1.672,0.107,2.777
			c0,1.299-0.035,2.357-0.107,3.174c-0.072,0.818-0.192,1.469-0.36,1.948c-0.17,0.479-0.396,0.806-0.686,0.974
			c-0.289,0.169-0.626,0.252-1.01,0.252c-0.435,0-1.107-0.252-2.021-0.757s-2.056-1.046-3.426-1.623
			c-1.371-0.577-2.958-1.118-4.761-1.623c-1.804-0.505-3.859-0.758-6.168-0.758c-1.635,0-3.054,0.169-4.256,0.505
			c-1.202,0.337-2.188,0.818-2.957,1.443c-0.771,0.625-1.348,1.357-1.731,2.199c-0.386,0.842-0.577,1.744-0.577,2.705
			c0,1.49,0.457,2.74,1.371,3.75c0.913,1.01,2.115,1.9,3.606,2.67c1.49,0.771,3.185,1.49,5.085,2.164
			c1.898,0.674,3.823,1.406,5.771,2.199c1.948,0.795,3.871,1.721,5.771,2.777c1.897,1.059,3.594,2.355,5.085,3.896
			c1.49,1.539,2.691,3.379,3.605,5.518C464.473,268.467,464.931,271.004,464.931,273.938z"/>
		<path fill="#5A2249" d="M514.99,285.768c0,2.115-0.133,3.738-0.396,4.867c-0.265,1.131-0.612,1.924-1.046,2.381
			c-0.433,0.457-1.07,0.865-1.911,1.228c-0.843,0.36-1.828,0.673-2.958,0.938c-1.13,0.264-2.355,0.469-3.679,0.612
			s-2.657,0.216-4.003,0.216c-3.607,0-6.733-0.457-9.378-1.369c-2.646-0.914-4.833-2.32-6.563-4.221
			c-1.73-1.898-3.006-4.292-3.822-7.178c-0.818-2.885-1.228-6.299-1.228-10.242v-32.965h-7.718c-0.914,0-1.612-0.564-2.092-1.695
			c-0.481-1.13-0.723-3.018-0.723-5.663c0-1.394,0.061-2.571,0.182-3.534c0.119-0.961,0.3-1.719,0.541-2.271
			c0.238-0.553,0.541-0.948,0.9-1.189c0.36-0.24,0.781-0.361,1.263-0.361h7.646v-14.354c0-0.48,0.132-0.912,0.396-1.299
			c0.264-0.385,0.745-0.709,1.442-0.975c0.696-0.264,1.634-0.457,2.812-0.576c1.178-0.119,2.633-0.182,4.363-0.182
			c1.778,0,3.259,0.062,4.438,0.182c1.178,0.119,2.104,0.312,2.777,0.576c0.673,0.266,1.152,0.59,1.441,0.975
			c0.288,0.387,0.434,0.818,0.434,1.299v14.354h13.994c0.479,0,0.9,0.121,1.262,0.361c0.361,0.241,0.661,0.639,0.901,1.189
			c0.239,0.554,0.421,1.312,0.541,2.271c0.119,0.963,0.181,2.142,0.181,3.534c0,2.646-0.241,4.533-0.722,5.663
			c-0.48,1.131-1.18,1.695-2.092,1.695h-14.065v30.224c0,3.511,0.553,6.144,1.658,7.898c1.105,1.756,3.077,2.633,5.915,2.633
			c0.962,0,1.827-0.083,2.598-0.253c0.769-0.168,1.454-0.359,2.056-0.577c0.602-0.216,1.105-0.407,1.516-0.576
			c0.407-0.168,0.78-0.253,1.117-0.253c0.289,0,0.564,0.085,0.829,0.253c0.266,0.169,0.47,0.505,0.613,1.011
			c0.145,0.504,0.276,1.188,0.396,2.056C514.93,283.312,514.99,284.421,514.99,285.768z"/>
		<path fill="#5A2249" d="M585.753,258.066c0,2.213-0.493,3.849-1.479,4.904c-0.986,1.059-2.346,1.588-4.075,1.588H541.03
			c0,2.74,0.325,5.229,0.974,7.465c0.649,2.236,1.685,4.138,3.104,5.699c1.417,1.562,3.244,2.754,5.48,3.57
			c2.236,0.818,4.917,1.227,8.043,1.227c3.174,0,5.962-0.228,8.367-0.686c2.404-0.456,4.483-0.962,6.24-1.516
			c1.755-0.553,3.21-1.058,4.363-1.515c1.153-0.456,2.092-0.686,2.812-0.686c0.433,0,0.794,0.084,1.082,0.252
			c0.289,0.17,0.528,0.47,0.722,0.901c0.191,0.434,0.324,1.047,0.396,1.84c0.071,0.793,0.107,1.791,0.107,2.994
			c0,1.058-0.024,1.959-0.071,2.705c-0.05,0.746-0.121,1.383-0.218,1.91c-0.097,0.529-0.24,0.975-0.433,1.334
			c-0.192,0.361-0.445,0.711-0.757,1.047c-0.313,0.338-1.167,0.793-2.562,1.371c-1.395,0.576-3.174,1.143-5.338,1.694
			s-4.641,1.033-7.43,1.442c-2.789,0.408-5.771,0.613-8.944,0.613c-5.723,0-10.735-0.723-15.039-2.164
			c-4.305-1.442-7.898-3.632-10.783-6.564c-2.887-2.934-5.038-6.637-6.456-11.108c-1.419-4.472-2.128-9.713-2.128-15.725
			c0-5.724,0.744-10.88,2.235-15.474c1.49-4.592,3.653-8.486,6.492-11.686c2.836-3.197,6.286-5.639,10.351-7.32
			c4.063-1.684,8.645-2.525,13.741-2.525c5.386,0,9.99,0.794,13.813,2.381c3.822,1.587,6.961,3.787,9.414,6.6
			c2.452,2.813,4.256,6.146,5.408,9.991c1.154,3.849,1.731,8.031,1.731,12.551v2.888H585.753z M568.152,252.873
			c0.145-5.098-0.878-9.1-3.065-12.01c-2.188-2.909-5.565-4.364-10.135-4.364c-2.31,0-4.316,0.433-6.023,1.299
			c-1.707,0.865-3.126,2.032-4.256,3.498c-1.13,1.468-1.996,3.199-2.597,5.193c-0.603,1.995-0.95,4.124-1.046,6.384H568.152z"/>
		<path fill="#5A2249" d="M662.142,292.114c0,0.479-0.144,0.901-0.433,1.262c-0.288,0.36-0.77,0.662-1.442,0.901
			c-0.674,0.242-1.6,0.421-2.776,0.541c-1.18,0.119-2.633,0.181-4.364,0.181c-1.779,0-3.258-0.062-4.436-0.181
			c-1.181-0.12-2.104-0.299-2.777-0.541c-0.674-0.239-1.154-0.541-1.442-0.901c-0.289-0.36-0.434-0.78-0.434-1.262v-36.716
			c0-3.127-0.229-5.578-0.686-7.357c-0.457-1.779-1.117-3.307-1.983-4.581c-0.865-1.272-1.983-2.26-3.354-2.957
			c-1.371-0.696-2.97-1.046-4.797-1.046c-2.309,0-4.642,0.842-6.997,2.523c-2.355,1.685-4.81,4.138-7.356,7.357v42.775
			c0,0.479-0.146,0.9-0.434,1.262c-0.289,0.361-0.781,0.662-1.479,0.902s-1.623,0.42-2.776,0.541
			c-1.153,0.119-2.622,0.18-4.399,0.18c-1.78,0-3.246-0.061-4.4-0.18c-1.154-0.121-2.08-0.301-2.777-0.541
			c-0.696-0.24-1.188-0.541-1.479-0.902c-0.288-0.359-0.434-0.781-0.434-1.262V227.77c0-0.479,0.119-0.901,0.36-1.263
			c0.24-0.36,0.673-0.659,1.299-0.901c0.624-0.239,1.431-0.42,2.416-0.541c0.985-0.119,2.225-0.181,3.716-0.181
			c1.538,0,2.812,0.062,3.822,0.181c1.01,0.121,1.791,0.302,2.346,0.541c0.552,0.242,0.947,0.541,1.188,0.901
			c0.24,0.36,0.361,0.782,0.361,1.263v7.431c3.558-3.847,7.177-6.732,10.854-8.656c3.68-1.923,7.515-2.886,11.506-2.886
			c4.375,0,8.066,0.722,11.072,2.164c3.005,1.443,5.435,3.402,7.285,5.879c1.851,2.479,3.186,5.374,4.004,8.691
			c0.816,3.318,1.227,7.312,1.227,11.975L662.142,292.114L662.142,292.114z"/>
		<path fill="#5A2249" d="M701.311,284.18c0,4.473-0.781,7.479-2.345,9.018c-1.562,1.537-4.364,2.308-8.403,2.308
			c-4.038,0-6.828-0.757-8.366-2.271c-1.54-1.517-2.31-4.389-2.31-8.62c0-4.521,0.781-7.55,2.346-9.089
			c1.562-1.539,4.388-2.31,8.476-2.31c3.99,0,6.756,0.759,8.295,2.272C700.54,277.002,701.311,279.898,701.311,284.18z"/>
		<path fill="#5A2249" d="M738.964,294.277c0,5.05-0.433,9.137-1.298,12.263c-0.866,3.126-2.177,5.759-3.932,7.899
			c-1.756,2.139-3.956,3.751-6.602,4.833c-2.645,1.08-5.747,1.621-9.305,1.621c-1.973,0-3.655-0.133-5.05-0.396
			c-1.396-0.265-2.405-0.541-3.029-0.829c-0.624-0.289-1.057-0.649-1.298-1.082c-0.24-0.433-0.408-0.927-0.506-1.479
			c-0.097-0.555-0.167-1.181-0.216-1.876c-0.049-0.697-0.072-1.601-0.072-2.705c0-1.348,0.036-2.465,0.107-3.354
			c0.072-0.891,0.205-1.6,0.396-2.128c0.192-0.53,0.409-0.914,0.648-1.154c0.241-0.24,0.555-0.36,0.938-0.36
			c0.241,0,0.732,0.061,1.479,0.181c0.745,0.119,1.552,0.182,2.417,0.182c1.25,0,2.332-0.193,3.246-0.578
			c0.912-0.385,1.659-0.998,2.235-1.84c0.577-0.842,1.011-1.924,1.299-3.246s0.434-3.426,0.434-6.312v-66.002
			c0-0.479,0.145-0.901,0.433-1.263c0.289-0.36,0.769-0.672,1.442-0.938c0.674-0.265,1.588-0.47,2.741-0.613
			c1.153-0.145,2.62-0.217,4.399-0.217c1.778,0,3.246,0.072,4.4,0.217c1.153,0.145,2.078,0.35,2.776,0.613
			c0.696,0.266,1.189,0.576,1.479,0.938c0.288,0.361,0.433,0.783,0.433,1.263v66.362H738.964z M740.335,205.986
			c0,3.656-0.734,6.181-2.2,7.574c-1.468,1.396-4.245,2.092-8.332,2.092c-4.039,0-6.779-0.672-8.223-2.021
			c-1.442-1.346-2.164-3.774-2.164-7.284c0-3.654,0.745-6.19,2.236-7.609c1.488-1.418,4.256-2.128,8.295-2.128
			c4.087,0,6.841,0.685,8.26,2.056C739.624,200.036,740.335,202.479,740.335,205.986z"/>
		<path fill="#5A2249" d="M802.441,273.938c0,3.654-0.687,6.877-2.057,9.666c-1.371,2.789-3.308,5.121-5.808,6.996
			c-2.501,1.875-5.458,3.281-8.872,4.221c-3.415,0.938-7.117,1.406-11.108,1.406c-2.404,0-4.7-0.182-6.889-0.541
			c-2.188-0.36-4.147-0.818-5.879-1.371s-3.174-1.117-4.328-1.694s-1.996-1.118-2.524-1.623s-0.938-1.299-1.227-2.381
			c-0.288-1.082-0.433-2.681-0.433-4.798c0-1.394,0.048-2.512,0.145-3.354c0.096-0.841,0.24-1.516,0.433-2.021
			c0.191-0.504,0.434-0.84,0.723-1.01c0.288-0.168,0.647-0.252,1.082-0.252c0.527,0,1.31,0.301,2.344,0.901
			c1.034,0.603,2.319,1.263,3.859,1.983c1.538,0.722,3.328,1.396,5.374,2.02c2.043,0.626,4.363,0.938,6.961,0.938
			c1.634,0,3.089-0.168,4.363-0.504c1.273-0.336,2.381-0.817,3.317-1.443c0.938-0.624,1.646-1.418,2.128-2.381
			c0.48-0.961,0.722-2.066,0.722-3.317c0-1.442-0.444-2.68-1.335-3.715c-0.89-1.033-2.066-1.937-3.533-2.705
			c-1.469-0.769-3.126-1.489-4.979-2.164c-1.852-0.673-3.75-1.418-5.698-2.235c-1.946-0.816-3.848-1.756-5.697-2.812
			c-1.853-1.059-3.512-2.355-4.979-3.896c-1.467-1.537-2.645-3.391-3.534-5.554c-0.891-2.164-1.335-4.762-1.335-7.791
			c0-3.077,0.603-5.901,1.805-8.476c1.2-2.572,2.933-4.771,5.192-6.6s5.014-3.246,8.26-4.257s6.89-1.516,10.929-1.516
			c2.02,0,3.979,0.146,5.879,0.434c1.898,0.288,3.618,0.648,5.156,1.082c1.539,0.433,2.838,0.901,3.896,1.406
			c1.058,0.505,1.814,0.938,2.271,1.298c0.456,0.361,0.781,0.723,0.975,1.082c0.19,0.361,0.336,0.794,0.433,1.299
			c0.097,0.506,0.182,1.131,0.253,1.875c0.072,0.746,0.107,1.672,0.107,2.777c0,1.299-0.035,2.357-0.107,3.174
			c-0.071,0.818-0.192,1.469-0.36,1.948c-0.169,0.479-0.396,0.806-0.686,0.974c-0.289,0.169-0.626,0.252-1.01,0.252
			c-0.435,0-1.107-0.252-2.021-0.757c-0.913-0.505-2.056-1.046-3.426-1.623c-1.371-0.577-2.958-1.118-4.761-1.623
			c-1.804-0.505-3.859-0.758-6.168-0.758c-1.635,0-3.054,0.169-4.256,0.505c-1.202,0.337-2.188,0.818-2.957,1.443
			c-0.771,0.625-1.348,1.357-1.731,2.199c-0.386,0.842-0.577,1.744-0.577,2.705c0,1.49,0.457,2.74,1.371,3.75
			c0.913,1.01,2.115,1.9,3.606,2.67c1.49,0.771,3.185,1.49,5.085,2.164c1.898,0.674,3.823,1.406,5.771,2.199
			c1.948,0.795,3.871,1.721,5.771,2.777c1.897,1.059,3.594,2.355,5.085,3.896c1.49,1.539,2.692,3.379,3.605,5.518
			C801.983,268.467,802.441,271.004,802.441,273.938z"/>
			</svg>
	</g>
	<path fill="#5A2249" d="M94.297,237.49c-0.035-4.551-3.789-8.197-8.306-8.172l-60.222,0.49c-4.552,0.032-8.205,3.752-8.171,8.305
		c0.023,3.923,2.806,7.191,6.484,7.988c0.584,0.127,1.194,0.19,1.822,0.181l60.222-0.487
		C90.662,245.757,94.332,242.041,94.297,237.49"/>
	<path fill="#5A2249" d="M89.468,259.779c-0.035-4.551-3.788-8.196-8.305-8.17L20.94,252.1c-4.552,0.031-8.205,3.75-8.169,8.305
		c0.022,3.923,2.804,7.191,6.484,7.988c0.583,0.125,1.193,0.19,1.821,0.178l60.223-0.485
		C85.834,268.048,89.504,264.331,89.468,259.779"/>
	<path fill="#5A2249" d="M36.886,273.475c-4.45-0.963-8.829,1.857-9.793,6.308c-0.965,4.45,1.856,8.829,6.306,9.793l21.652,4.688
		c4.449,0.967,8.83-1.854,9.794-6.305c0.965-4.45-1.858-8.832-6.307-9.795L36.886,273.475z"/>
	<path fill="#5A2249" d="M104.746,190.156c1.757-8.114,11.53-15.002,22.855-22.984c17.972-12.668,40.333-28.435,47.162-59.96
		c10.325-47.675-20.064-94.869-67.753-105.197C59.335-8.312,12.143,22.078,1.816,69.751c-6.827,31.526,7.006,55.132,18.109,74.099
		c7.009,11.953,13.054,22.267,11.297,30.38l-3.617,16.701c-0.965,4.45,1.858,8.831,6.307,9.792c4.45,0.965,8.831-1.854,9.794-6.304
		l3.618-16.701c3.115-14.387-4.789-27.9-13.183-42.197c-10.166-17.362-21.692-37.028-16.223-62.28
		c8.401-38.793,46.813-63.527,85.604-55.126c38.807,8.405,63.542,46.818,55.139,85.61c-5.469,25.251-24.116,38.382-40.555,49.981
		c-13.542,9.544-26.345,18.574-29.46,32.963l-4.173,19.263l-53.626,0.436c-4.551,0.033-8.206,3.753-8.171,8.305
		c0.023,3.922,2.792,7.172,6.488,7.973c0.582,0.127,1.192,0.19,1.818,0.195l60.221-0.486c0.25-0.012,0.458-0.133,0.71-0.16
		c0.573-0.057,1.092-0.174,1.621-0.34c0.496-0.155,0.977-0.332,1.422-0.564c0.484-0.256,0.876-0.55,1.296-0.887
		c0.397-0.327,0.786-0.67,1.122-1.074c0.33-0.391,0.588-0.828,0.852-1.279c0.271-0.486,0.494-0.982,0.66-1.521
		c0.085-0.243,0.239-0.424,0.294-0.676L104.746,190.156z"/>
	<g>
		<path fill="#AFBC37" d="M59.963,132.837c4.488-0.565,7.649-4.693,7.096-9.15l-7.495-59.383c-0.563-4.489-4.661-7.662-9.148-7.099
			c-3.869,0.48-6.771,3.606-7.13,7.331c-0.057,0.591-0.051,1.2,0.035,1.819l7.494,59.385
			C51.379,130.211,55.475,133.401,59.963,132.837"/>
		<path fill="#BDDDB0" d="M54.562,131.6c-3.797-2.458-4.848-7.551-2.414-11.324l32.566-50.219c2.459-3.797,7.528-4.875,11.324-2.415
			c3.277,2.116,4.53,6.192,3.234,9.703c-0.204,0.555-0.476,1.101-0.821,1.621l-32.565,50.221
			C63.433,132.97,58.357,134.062,54.562,131.6"/>
		<path fill="#9A5CA3" d="M100.187,142.037c4.488-0.564,7.649-4.693,7.098-9.148L99.79,73.504c-0.564-4.488-4.662-7.66-9.149-7.098
			c-3.87,0.482-6.773,3.608-7.131,7.332c-0.056,0.59-0.049,1.198,0.035,1.817l7.494,59.386
			C91.603,139.413,95.699,142.604,100.187,142.037"/>
		<path fill="#E7D01C" d="M94.785,140.802c-3.796-2.459-4.848-7.554-2.414-11.324l32.567-50.219
			c2.459-3.797,7.527-4.875,11.324-2.417c3.277,2.116,4.531,6.192,3.233,9.703c-0.205,0.555-0.474,1.101-0.821,1.622l-32.566,50.221
			C103.655,142.17,98.581,143.262,94.785,140.802"/>
		<path fill="#723F72" d="M99.274,77.336c1.297-3.51,0.041-7.586-3.233-9.702c-0.711-0.459-1.469-0.797-2.243-1.013
			c-0.114-0.032-0.232-0.056-0.348-0.081c-0.117-0.027-0.233-0.057-0.349-0.08c-0.792-0.14-1.62-0.165-2.46-0.061
			c-3.87,0.48-6.771,3.605-7.13,7.331c-0.056,0.59-0.052,1.2,0.035,1.818l2.788,22.098l12.119-18.689
			C98.798,78.439,99.068,77.892,99.274,77.336"/>
		<path fill="#A37B54" d="M91.564,131.107c-1.298,3.511-0.043,7.587,3.233,9.703c0.711,0.46,1.466,0.797,2.243,1.015
			c0.113,0.03,0.231,0.053,0.347,0.079c0.116,0.027,0.232,0.057,0.349,0.08c0.792,0.14,1.619,0.167,2.459,0.061
			c3.869-0.481,6.772-3.607,7.13-7.333c0.056-0.588,0.052-1.197-0.035-1.816l-2.788-22.098l-12.118,18.688
			C92.039,130.006,91.77,130.554,91.564,131.107"/>
		<path fill="#A1A838" d="M51.34,121.907c-1.297,3.51-0.044,7.587,3.234,9.703c0.71,0.46,1.467,0.795,2.241,1.013
			c0.115,0.032,0.231,0.055,0.349,0.08c0.115,0.026,0.231,0.058,0.348,0.079c0.793,0.142,1.619,0.168,2.46,0.061
			c3.869-0.479,6.772-3.604,7.13-7.331c0.056-0.589,0.05-1.199-0.034-1.818l-2.789-22.098l-12.118,18.689
			C51.814,120.805,51.545,121.351,51.34,121.907"/>
	</g>
</g>
</svg>
